<svg xmlns="http://www.w3.org/2000/svg" version="1.1" xmlns:xlink="http://www.w3.org/1999/xlink" xmlns:svgjs="http://svgjs.com/svgjs" width="1440" height="800" preserveAspectRatio="none" viewBox="0 0 1440 800">
    <g mask="url(&quot;#SvgjsMask1332&quot;)" fill="none">
        <g mask="url(&quot;#SvgjsMask1333&quot;)">
            <path d="M1134 402L1122 390L1110 390L1098 390L1086 390L1074 390M1422 390L1410 402M1314 390L1302 402L1290 414M1386 390L1374 402L1362 402L1350 402L1338 402M1158 402L1146 414L1134 426L1122 426M1230 402L1218 414L1206 414L1194 414L1182 414M1362 390L1350 378L1338 378L1326 378L1314 378L1302 378L1290 378L1278 378L1266 378L1254 378M1398 390L1386 402M1194 402L1182 390M1002 402L990 414L978 414L966 414L954 426L942 426L930 414L918 414L906 414L894 414L882 414L870 414L858 426L846 426M1458 402L1446 390L1434 390L1422 390L1410 390L1398 390L1386 390L1374 390L1362 390L1350 390L1338 390L1326 390L1314 390L1302 390L1290 390L1278 390L1266 402L1254 402L1242 402L1230 402L1218 402L1206 402L1194 402L1182 402L1170 402L1158 402L1146 402L1134 402L1122 402L1110 402L1098 402L1086 402L1074 402L1062 402L1050 402L1038 402L1026 402L1014 402L1002 402L990 402L978 402L966 402L954 402" stroke="rgba(0, 255, 187, 1)" stroke-width="2"></path>
            <path d="M951 402 a3 3 0 1 0 6 0 a3 3 0 1 0 -6 0zM1071 390 a3 3 0 1 0 6 0 a3 3 0 1 0 -6 0zM1407 402 a3 3 0 1 0 6 0 a3 3 0 1 0 -6 0zM1287 414 a3 3 0 1 0 6 0 a3 3 0 1 0 -6 0zM1335 402 a3 3 0 1 0 6 0 a3 3 0 1 0 -6 0zM1119 426 a3 3 0 1 0 6 0 a3 3 0 1 0 -6 0zM1179 414 a3 3 0 1 0 6 0 a3 3 0 1 0 -6 0zM1251 378 a3 3 0 1 0 6 0 a3 3 0 1 0 -6 0zM1383 402 a3 3 0 1 0 6 0 a3 3 0 1 0 -6 0zM1179 390 a3 3 0 1 0 6 0 a3 3 0 1 0 -6 0zM843 426 a3 3 0 1 0 6 0 a3 3 0 1 0 -6 0z" fill="rgba(0, 255, 187, 1)"></path>
            <path d="M1434 414L1422 414L1410 414M1326 426L1314 414M1398 414L1386 426L1374 426L1362 426L1350 426M1446 414L1434 402L1422 402M1458 414L1446 414L1434 414L1422 426L1410 426L1398 414L1386 414L1374 414L1362 414L1350 414L1338 426L1326 426L1314 426L1302 426L1290 426L1278 426L1266 426L1254 426" stroke="rgba(0, 255, 187, 1)" stroke-width="2"></path>
            <path d="M1251 426 a3 3 0 1 0 6 0 a3 3 0 1 0 -6 0zM1407 414 a3 3 0 1 0 6 0 a3 3 0 1 0 -6 0zM1311 414 a3 3 0 1 0 6 0 a3 3 0 1 0 -6 0zM1347 426 a3 3 0 1 0 6 0 a3 3 0 1 0 -6 0zM1419 402 a3 3 0 1 0 6 0 a3 3 0 1 0 -6 0z" fill="rgba(0, 255, 187, 1)"></path>
            <path d="M1278 366L1266 354M966 354L954 366L942 366L930 366L918 366L906 366L894 366L882 366L870 366L858 378M1242 366L1230 366L1218 378L1206 378L1194 378L1182 378L1170 378L1158 378M1146 354L1134 366L1122 366L1110 366L1098 366L1086 366L1074 366L1062 366L1050 366L1038 366L1026 366L1014 366L1002 366L990 366L978 366L966 366L954 378L942 378L930 378L918 378M690 354L678 342L666 342L654 342L642 342M954 354L942 342L930 342L918 342L906 342L894 342L882 342L870 342L858 342L846 342L834 342L822 342L810 342L798 342L786 342L774 342M1122 342L1110 354L1098 354L1086 354L1074 354L1062 354L1050 354M1014 354L1002 342L990 342L978 342M1290 366L1278 354L1266 342L1254 342M678 354L666 366L654 366L642 366L630 366M1302 366L1290 354L1278 342M1218 354L1206 342M1314 366L1302 354L1290 342M750 354L738 342L726 342L714 342L702 342L690 342L678 330L666 330L654 330L642 330L630 330L618 330L606 330L594 330L582 330L570 330M1410 378L1398 366M1134 342L1122 354M1230 354L1218 342M1458 378L1446 378L1434 378L1422 378L1410 378L1398 378L1386 366L1374 366L1362 366L1350 366L1338 366L1326 366L1314 366L1302 366L1290 366L1278 366L1266 366L1254 366L1242 366L1230 354L1218 354L1206 354L1194 354L1182 354L1170 354L1158 354L1146 354L1134 342L1122 342L1110 342L1098 342L1086 342L1074 342L1062 342L1050 342L1038 354L1026 354L1014 354L1002 354L990 354L978 354L966 354L954 354L942 354L930 354L918 354L906 354L894 354L882 354L870 354L858 366L846 366L834 366L822 366L810 366L798 366L786 366L774 366L762 354L750 354L738 354L726 354L714 354L702 354L690 354L678 354L666 354L654 354L642 354" stroke="rgba(214, 135, 249, 1)" stroke-width="2"></path>
            <path d="M639 354 a3 3 0 1 0 6 0 a3 3 0 1 0 -6 0zM1263 354 a3 3 0 1 0 6 0 a3 3 0 1 0 -6 0zM855 378 a3 3 0 1 0 6 0 a3 3 0 1 0 -6 0zM1155 378 a3 3 0 1 0 6 0 a3 3 0 1 0 -6 0zM915 378 a3 3 0 1 0 6 0 a3 3 0 1 0 -6 0zM639 342 a3 3 0 1 0 6 0 a3 3 0 1 0 -6 0zM771 342 a3 3 0 1 0 6 0 a3 3 0 1 0 -6 0zM1047 354 a3 3 0 1 0 6 0 a3 3 0 1 0 -6 0zM975 342 a3 3 0 1 0 6 0 a3 3 0 1 0 -6 0zM1251 342 a3 3 0 1 0 6 0 a3 3 0 1 0 -6 0zM627 366 a3 3 0 1 0 6 0 a3 3 0 1 0 -6 0zM1275 342 a3 3 0 1 0 6 0 a3 3 0 1 0 -6 0zM1203 342 a3 3 0 1 0 6 0 a3 3 0 1 0 -6 0zM1287 342 a3 3 0 1 0 6 0 a3 3 0 1 0 -6 0zM567 330 a3 3 0 1 0 6 0 a3 3 0 1 0 -6 0zM1395 366 a3 3 0 1 0 6 0 a3 3 0 1 0 -6 0zM1119 354 a3 3 0 1 0 6 0 a3 3 0 1 0 -6 0zM1215 342 a3 3 0 1 0 6 0 a3 3 0 1 0 -6 0z" fill="rgba(214, 135, 249, 1)"></path>
            <path d="M1446 426L1434 426M1458 426L1446 426L1434 438L1422 438L1410 438L1398 438L1386 438L1374 438L1362 438" stroke="rgba(214, 135, 249, 1)" stroke-width="2"></path>
            <path d="M1359 438 a3 3 0 1 0 6 0 a3 3 0 1 0 -6 0zM1431 426 a3 3 0 1 0 6 0 a3 3 0 1 0 -6 0z" fill="rgba(214, 135, 249, 1)"></path>
            <path d="M1362 342L1350 354M1434 354L1422 366L1410 366M1398 354L1386 354L1374 354M1458 366L1446 366L1434 354L1422 354L1410 354L1398 354L1386 342L1374 342L1362 342L1350 342L1338 342" stroke="rgba(78, 125, 161, 1)" stroke-width="2"></path>
            <path d="M1335 342 a3 3 0 1 0 6 0 a3 3 0 1 0 -6 0zM1347 354 a3 3 0 1 0 6 0 a3 3 0 1 0 -6 0zM1407 366 a3 3 0 1 0 6 0 a3 3 0 1 0 -6 0zM1371 354 a3 3 0 1 0 6 0 a3 3 0 1 0 -6 0z" fill="rgba(78, 125, 161, 1)"></path>
            <path d="M1290 438L1278 450L1266 450L1254 450M1230 426L1218 438M1374 450L1362 462L1350 462L1338 462L1326 462M1350 450L1338 438L1326 438M1206 426L1194 438L1182 438L1170 438L1158 438L1146 438L1134 438L1122 438L1110 438L1098 438L1086 438M1326 450L1314 450L1302 450M1458 438L1446 438L1434 450L1422 450L1410 450L1398 450L1386 450L1374 450L1362 450L1350 450L1338 450L1326 450L1314 438L1302 438L1290 438L1278 438L1266 438L1254 438L1242 438L1230 426L1218 426L1206 426L1194 426L1182 426L1170 426" stroke="rgba(0, 255, 187, 1)" stroke-width="2"></path>
            <path d="M1167 426 a3 3 0 1 0 6 0 a3 3 0 1 0 -6 0zM1251 450 a3 3 0 1 0 6 0 a3 3 0 1 0 -6 0zM1215 438 a3 3 0 1 0 6 0 a3 3 0 1 0 -6 0zM1323 462 a3 3 0 1 0 6 0 a3 3 0 1 0 -6 0zM1323 438 a3 3 0 1 0 6 0 a3 3 0 1 0 -6 0zM1083 438 a3 3 0 1 0 6 0 a3 3 0 1 0 -6 0zM1299 450 a3 3 0 1 0 6 0 a3 3 0 1 0 -6 0z" fill="rgba(0, 255, 187, 1)"></path>
            <path d="M702 282L690 270L678 258L666 258L654 258L642 258L630 258L618 258L606 258L594 258L582 258L570 246M1110 330L1098 318L1086 306L1074 306M870 318L858 330M1350 330L1338 318L1326 318L1314 318L1302 318M1122 330L1110 318M726 294L714 294L702 294L690 294M1206 330L1194 318L1182 318L1170 318L1158 306M918 318L906 306L894 306L882 306L870 306L858 306L846 306M1182 330L1170 342L1158 342L1146 342M678 270L666 282L654 282L642 282L630 282L618 282L606 282L594 282L582 282L570 294L558 294L546 294M966 318L954 330L942 330L930 330L918 330L906 330L894 330L882 330L870 330M1062 318L1050 330L1038 330M978 318L966 306L954 306L942 306L930 306L918 306L906 294L894 294L882 282L870 270L858 270M1146 330L1134 318L1122 318M1266 330L1254 318M738 294L726 282L714 270L702 270M1314 330L1302 342M750 294L738 306L726 306L714 306L702 306L690 318L678 318L666 318L654 318L642 318L630 318L618 318L606 318L594 318L582 318M1458 354L1446 354L1434 342L1422 342L1410 342L1398 342L1386 330L1374 330L1362 330L1350 330L1338 330L1326 330L1314 330L1302 330L1290 330L1278 330L1266 330L1254 330L1242 330L1230 330L1218 330L1206 330L1194 330L1182 330L1170 330L1158 330L1146 330L1134 330L1122 330L1110 330L1098 330L1086 318L1074 318L1062 318L1050 318L1038 318L1026 318L1014 318L1002 318L990 318L978 318L966 318L954 318L942 318L930 318L918 318L906 318L894 318L882 318L870 318L858 318L846 318L834 318L822 306L810 294L798 294L786 294L774 294L762 294L750 294L738 294L726 294L714 282L702 282L690 282L678 270L666 270L654 270L642 270L630 270L618 270L606 270L594 270L582 270L570 258" stroke="rgba(255, 78, 78, 1)" stroke-width="2"></path>
            <path d="M567 258 a3 3 0 1 0 6 0 a3 3 0 1 0 -6 0zM567 246 a3 3 0 1 0 6 0 a3 3 0 1 0 -6 0zM1071 306 a3 3 0 1 0 6 0 a3 3 0 1 0 -6 0zM855 330 a3 3 0 1 0 6 0 a3 3 0 1 0 -6 0zM1299 318 a3 3 0 1 0 6 0 a3 3 0 1 0 -6 0zM1107 318 a3 3 0 1 0 6 0 a3 3 0 1 0 -6 0zM687 294 a3 3 0 1 0 6 0 a3 3 0 1 0 -6 0zM1155 306 a3 3 0 1 0 6 0 a3 3 0 1 0 -6 0zM843 306 a3 3 0 1 0 6 0 a3 3 0 1 0 -6 0zM1143 342 a3 3 0 1 0 6 0 a3 3 0 1 0 -6 0zM543 294 a3 3 0 1 0 6 0 a3 3 0 1 0 -6 0zM867 330 a3 3 0 1 0 6 0 a3 3 0 1 0 -6 0zM1035 330 a3 3 0 1 0 6 0 a3 3 0 1 0 -6 0zM855 270 a3 3 0 1 0 6 0 a3 3 0 1 0 -6 0zM1119 318 a3 3 0 1 0 6 0 a3 3 0 1 0 -6 0zM1251 318 a3 3 0 1 0 6 0 a3 3 0 1 0 -6 0zM699 270 a3 3 0 1 0 6 0 a3 3 0 1 0 -6 0zM1299 342 a3 3 0 1 0 6 0 a3 3 0 1 0 -6 0zM579 318 a3 3 0 1 0 6 0 a3 3 0 1 0 -6 0z" fill="rgba(255, 78, 78, 1)"></path>
            <path d="M1074 486L1062 474M1266 474L1254 462L1242 462L1230 462L1218 450L1206 450L1194 450L1182 450L1170 450L1158 450L1146 450L1134 450L1122 450L1110 450M1386 474L1374 462M990 486L978 474L966 474L954 462L942 462L930 462L918 462L906 462L894 462L882 462L870 462L858 462L846 462L834 462L822 462L810 462L798 462M1314 474L1302 462L1290 462L1278 462L1266 462M810 486L798 474L786 474L774 462L762 462M954 474L942 486L930 486L918 486M1410 462L1398 462M1050 486L1038 474L1026 474M834 474L822 474L810 474M906 474L894 486L882 486L870 486L858 486L846 486L834 486M1350 474L1338 486L1326 486L1314 486M1374 474L1362 486M1086 474L1074 474L1062 462L1050 462L1038 462L1026 462L1014 462L1002 462L990 462L978 462L966 462L954 450L942 450M1458 450L1446 450L1434 462L1422 462L1410 462L1398 474L1386 474L1374 474L1362 474L1350 474L1338 474L1326 474L1314 474L1302 474L1290 474L1278 474L1266 474L1254 474L1242 474L1230 474L1218 462L1206 462L1194 462L1182 462L1170 462L1158 462L1146 462L1134 462L1122 462L1110 462L1098 462L1086 474L1074 486L1062 486L1050 486L1038 486L1026 486L1014 486L1002 486L990 486L978 486L966 486L954 474L942 474L930 474L918 474L906 474L894 474L882 474L870 474L858 474L846 474L834 474L822 486L810 486L798 486" stroke="rgba(0, 255, 187, 1)" stroke-width="2"></path>
            <path d="M795 486 a3 3 0 1 0 6 0 a3 3 0 1 0 -6 0zM1059 474 a3 3 0 1 0 6 0 a3 3 0 1 0 -6 0zM1107 450 a3 3 0 1 0 6 0 a3 3 0 1 0 -6 0zM1371 462 a3 3 0 1 0 6 0 a3 3 0 1 0 -6 0zM795 462 a3 3 0 1 0 6 0 a3 3 0 1 0 -6 0zM1263 462 a3 3 0 1 0 6 0 a3 3 0 1 0 -6 0zM759 462 a3 3 0 1 0 6 0 a3 3 0 1 0 -6 0zM915 486 a3 3 0 1 0 6 0 a3 3 0 1 0 -6 0zM1395 462 a3 3 0 1 0 6 0 a3 3 0 1 0 -6 0zM1023 474 a3 3 0 1 0 6 0 a3 3 0 1 0 -6 0zM807 474 a3 3 0 1 0 6 0 a3 3 0 1 0 -6 0zM831 486 a3 3 0 1 0 6 0 a3 3 0 1 0 -6 0zM1311 486 a3 3 0 1 0 6 0 a3 3 0 1 0 -6 0zM1359 486 a3 3 0 1 0 6 0 a3 3 0 1 0 -6 0zM939 450 a3 3 0 1 0 6 0 a3 3 0 1 0 -6 0z" fill="rgba(0, 255, 187, 1)"></path>
            <path d="M1194 282L1182 294L1170 294M1350 294L1338 306L1326 306L1314 306M1254 282L1242 294L1230 294L1218 294M1158 294L1146 294L1134 294L1122 294M1170 282L1158 282M1314 294L1302 294L1290 294L1278 294L1266 294L1254 294M1362 306L1350 306M1458 342L1446 342L1434 330L1422 330L1410 330L1398 330L1386 318L1374 306L1362 306L1350 294L1338 294L1326 294L1314 294L1302 282L1290 282L1278 282L1266 282L1254 282L1242 282L1230 282L1218 282L1206 282L1194 282L1182 282L1170 282L1158 294L1146 306L1134 306L1122 306L1110 306" stroke="rgba(0, 255, 187, 1)" stroke-width="2"></path>
            <path d="M1107 306 a3 3 0 1 0 6 0 a3 3 0 1 0 -6 0zM1167 294 a3 3 0 1 0 6 0 a3 3 0 1 0 -6 0zM1311 306 a3 3 0 1 0 6 0 a3 3 0 1 0 -6 0zM1215 294 a3 3 0 1 0 6 0 a3 3 0 1 0 -6 0zM1119 294 a3 3 0 1 0 6 0 a3 3 0 1 0 -6 0zM1155 282 a3 3 0 1 0 6 0 a3 3 0 1 0 -6 0zM1251 294 a3 3 0 1 0 6 0 a3 3 0 1 0 -6 0zM1347 306 a3 3 0 1 0 6 0 a3 3 0 1 0 -6 0z" fill="rgba(0, 255, 187, 1)"></path>
            <path d="M894 498L882 510L870 510L858 510L846 510L834 510L822 510L810 510L798 510L786 522L774 522L762 522L750 522M786 486L774 498L762 498L750 498L738 498L726 498L714 498L702 498L690 498L678 498L666 498L654 498M1050 498L1038 510L1026 510L1014 510L1002 510L990 510L978 510L966 522L954 522L942 522L930 522L918 522L906 522M642 474L630 462L618 450L606 450L594 450L582 450L570 462L558 462L546 450L534 450L522 450L510 450L498 450L486 450L474 450L462 450L450 450L438 450L426 450L414 450L402 450L390 450L378 450L366 450L354 450L342 450L330 450L318 450M1170 474L1158 486L1146 486L1134 486L1122 486L1110 486L1098 486L1086 498L1074 510L1062 510L1050 510L1038 522L1026 522L1014 522L1002 522L990 522L978 522M654 474L642 462L630 450L618 438L606 438L594 438L582 438L570 438L558 438L546 438L534 438L522 438L510 438M906 498L894 510M1302 486L1290 498L1278 498M942 498L930 510M666 474L654 486L642 486L630 486L618 474L606 474L594 474L582 474L570 486L558 498L546 498L534 498L522 498L510 498L498 498L486 498L474 498L462 498L450 498L438 498L426 498L414 498L402 498M462 486L450 474L438 462L426 462L414 462L402 462L390 462L378 462L366 462L354 474L342 474L330 474L318 474M798 498L786 498M486 486L474 474L462 474M1326 498L1314 510L1302 510L1290 510L1278 510L1266 510L1254 510L1242 510L1230 510L1218 510L1206 510L1194 510L1182 510L1170 498L1158 498L1146 498M738 474L726 462L714 462L702 450L690 450M702 462L690 474L678 486L666 486M1398 486L1386 486L1374 486M966 498L954 510L942 510M546 474L534 462L522 462L510 462L498 462L486 462L474 462L462 462L450 462M918 498L906 510M1314 498L1302 498M1458 462L1446 462L1434 474L1422 486L1410 486L1398 486L1386 498L1374 498L1362 498L1350 498L1338 498L1326 498L1314 498L1302 486L1290 486L1278 486L1266 486L1254 486L1242 486L1230 486L1218 486L1206 474L1194 474L1182 474L1170 474L1158 474L1146 474L1134 474L1122 474L1110 474L1098 474L1086 486L1074 498L1062 498L1050 498L1038 498L1026 498L1014 498L1002 498L990 498L978 498L966 498L954 498L942 498L930 498L918 498L906 498L894 498L882 498L870 498L858 498L846 498L834 498L822 498L810 498L798 498L786 486L774 486L762 486L750 474L738 474L726 474L714 474L702 462L690 462L678 474L666 474L654 474L642 474L630 474L618 462L606 462L594 462L582 462L570 474L558 474L546 474L534 474L522 486L510 486L498 486L486 486L474 486L462 486L450 486L438 486" stroke="rgba(0, 255, 187, 1)" stroke-width="2"></path>
            <path d="M435 486 a3 3 0 1 0 6 0 a3 3 0 1 0 -6 0zM747 522 a3 3 0 1 0 6 0 a3 3 0 1 0 -6 0zM651 498 a3 3 0 1 0 6 0 a3 3 0 1 0 -6 0zM903 522 a3 3 0 1 0 6 0 a3 3 0 1 0 -6 0zM315 450 a3 3 0 1 0 6 0 a3 3 0 1 0 -6 0zM975 522 a3 3 0 1 0 6 0 a3 3 0 1 0 -6 0zM507 438 a3 3 0 1 0 6 0 a3 3 0 1 0 -6 0zM891 510 a3 3 0 1 0 6 0 a3 3 0 1 0 -6 0zM1275 498 a3 3 0 1 0 6 0 a3 3 0 1 0 -6 0zM927 510 a3 3 0 1 0 6 0 a3 3 0 1 0 -6 0zM399 498 a3 3 0 1 0 6 0 a3 3 0 1 0 -6 0zM315 474 a3 3 0 1 0 6 0 a3 3 0 1 0 -6 0zM783 498 a3 3 0 1 0 6 0 a3 3 0 1 0 -6 0zM459 474 a3 3 0 1 0 6 0 a3 3 0 1 0 -6 0zM1143 498 a3 3 0 1 0 6 0 a3 3 0 1 0 -6 0zM687 450 a3 3 0 1 0 6 0 a3 3 0 1 0 -6 0zM663 486 a3 3 0 1 0 6 0 a3 3 0 1 0 -6 0zM1371 486 a3 3 0 1 0 6 0 a3 3 0 1 0 -6 0zM939 510 a3 3 0 1 0 6 0 a3 3 0 1 0 -6 0zM447 462 a3 3 0 1 0 6 0 a3 3 0 1 0 -6 0zM903 510 a3 3 0 1 0 6 0 a3 3 0 1 0 -6 0zM1299 498 a3 3 0 1 0 6 0 a3 3 0 1 0 -6 0z" fill="rgba(0, 255, 187, 1)"></path>
            <path d="M1110 282L1098 294M1134 282L1122 270L1110 270L1098 270M1146 282L1134 270M1086 282L1074 294M1158 270L1146 270M1458 330L1446 318L1434 318L1422 318L1410 318L1398 318L1386 306L1374 294L1362 294L1350 282L1338 282L1326 282L1314 282L1302 270L1290 270L1278 270L1266 270L1254 270L1242 270L1230 270L1218 270L1206 270L1194 270L1182 270L1170 270L1158 270L1146 282L1134 282L1122 282L1110 282L1098 282L1086 282L1074 282L1062 282" stroke="rgba(78, 125, 161, 1)" stroke-width="2"></path>
            <path d="M1059 282 a3 3 0 1 0 6 0 a3 3 0 1 0 -6 0zM1095 294 a3 3 0 1 0 6 0 a3 3 0 1 0 -6 0zM1095 270 a3 3 0 1 0 6 0 a3 3 0 1 0 -6 0zM1131 270 a3 3 0 1 0 6 0 a3 3 0 1 0 -6 0zM1071 294 a3 3 0 1 0 6 0 a3 3 0 1 0 -6 0zM1143 270 a3 3 0 1 0 6 0 a3 3 0 1 0 -6 0z" fill="rgba(78, 125, 161, 1)"></path>
            <path d="M1422 498L1410 510L1398 510M1350 510L1338 510L1326 510L1314 522L1302 522M1458 474L1446 474L1434 486L1422 498L1410 498L1398 498L1386 510L1374 510L1362 510L1350 510L1338 522" stroke="rgba(255, 78, 78, 1)" stroke-width="2"></path>
            <path d="M1335 522 a3 3 0 1 0 6 0 a3 3 0 1 0 -6 0zM1395 510 a3 3 0 1 0 6 0 a3 3 0 1 0 -6 0zM1299 522 a3 3 0 1 0 6 0 a3 3 0 1 0 -6 0z" fill="rgba(255, 78, 78, 1)"></path>
            <path d="M1074 546L1062 558L1050 558L1038 558L1026 558L1014 558L1002 558M1134 546L1122 558L1110 558L1098 558L1086 558M1446 498L1434 498M1338 534L1326 546L1314 546M1170 546L1158 558L1146 558L1134 558L1122 570L1110 570L1098 570M1206 546L1194 534L1182 534L1170 534L1158 534L1146 534L1134 534L1122 534L1110 534L1098 534M1290 534L1278 534L1266 534M966 534L954 546L942 546L930 546L918 546L906 546M990 534L978 546M1026 534L1014 546L1002 546L990 546L978 558L966 558L954 558L942 558L930 558L918 570M1374 522L1362 534L1350 534M1458 486L1446 498L1434 510L1422 522L1410 522L1398 522L1386 522L1374 522L1362 522L1350 522L1338 534L1326 534L1314 534L1302 534L1290 534L1278 546L1266 546L1254 546L1242 546L1230 546L1218 546L1206 546L1194 546L1182 546L1170 546L1158 546L1146 546L1134 546L1122 546L1110 546L1098 546L1086 546L1074 546L1062 546L1050 546L1038 546L1026 534L1014 534L1002 534L990 534L978 534L966 534L954 534L942 534" stroke="rgba(255, 78, 78, 1)" stroke-width="2"></path>
            <path d="M939 534 a3 3 0 1 0 6 0 a3 3 0 1 0 -6 0zM999 558 a3 3 0 1 0 6 0 a3 3 0 1 0 -6 0zM1083 558 a3 3 0 1 0 6 0 a3 3 0 1 0 -6 0zM1431 498 a3 3 0 1 0 6 0 a3 3 0 1 0 -6 0zM1311 546 a3 3 0 1 0 6 0 a3 3 0 1 0 -6 0zM1095 570 a3 3 0 1 0 6 0 a3 3 0 1 0 -6 0zM1095 534 a3 3 0 1 0 6 0 a3 3 0 1 0 -6 0zM1263 534 a3 3 0 1 0 6 0 a3 3 0 1 0 -6 0zM903 546 a3 3 0 1 0 6 0 a3 3 0 1 0 -6 0zM975 546 a3 3 0 1 0 6 0 a3 3 0 1 0 -6 0zM915 570 a3 3 0 1 0 6 0 a3 3 0 1 0 -6 0zM1347 534 a3 3 0 1 0 6 0 a3 3 0 1 0 -6 0z" fill="rgba(255, 78, 78, 1)"></path>
            <path d="M1026 270L1014 282L1002 282L990 270L978 270M1050 270L1038 258L1026 258L1014 258L1002 258L990 258L978 258L966 258L954 258L942 258L930 258L918 258M1098 258L1086 258L1074 258L1062 258L1050 258M1038 270L1026 282L1014 294L1002 294M1458 306L1446 306L1434 306L1422 306L1410 306L1398 306L1386 294L1374 282L1362 282L1350 270L1338 270L1326 270L1314 270L1302 258L1290 258L1278 258L1266 258L1254 258L1242 258L1230 258L1218 258L1206 258L1194 258L1182 258L1170 258L1158 258L1146 258L1134 258L1122 258L1110 258L1098 258L1086 270L1074 270L1062 270L1050 270L1038 270L1026 270L1014 270" stroke="rgba(161, 241, 108, 1)" stroke-width="2"></path>
            <path d="M1011 270 a3 3 0 1 0 6 0 a3 3 0 1 0 -6 0zM975 270 a3 3 0 1 0 6 0 a3 3 0 1 0 -6 0zM915 258 a3 3 0 1 0 6 0 a3 3 0 1 0 -6 0zM1047 258 a3 3 0 1 0 6 0 a3 3 0 1 0 -6 0zM999 294 a3 3 0 1 0 6 0 a3 3 0 1 0 -6 0z" fill="rgba(161, 241, 108, 1)"></path>
            <path d="M930 234L918 246L906 246M1086 246L1074 234L1062 234L1050 234L1038 234L1026 234L1014 234M1158 246L1146 234L1134 234L1122 234L1110 234L1098 234L1086 234M1410 294L1398 282M1170 246L1158 234M1182 246L1170 234M1242 246L1230 234L1218 234L1206 234M1194 246L1182 234M966 246L954 246L942 246L930 246M1458 294L1446 294L1434 294L1422 294L1410 294L1398 294L1386 282L1374 270L1362 270L1350 258L1338 258L1326 258L1314 258L1302 246L1290 246L1278 246L1266 246L1254 246L1242 246L1230 246L1218 246L1206 246L1194 246L1182 246L1170 246L1158 246L1146 246L1134 246L1122 246L1110 246L1098 246L1086 246L1074 246L1062 246L1050 246L1038 246L1026 246L1014 246L1002 246L990 246L978 246L966 246L954 234L942 234L930 234L918 234L906 234L894 234" stroke="rgba(161, 241, 108, 1)" stroke-width="2"></path>
            <path d="M891 234 a3 3 0 1 0 6 0 a3 3 0 1 0 -6 0zM903 246 a3 3 0 1 0 6 0 a3 3 0 1 0 -6 0zM1011 234 a3 3 0 1 0 6 0 a3 3 0 1 0 -6 0zM1083 234 a3 3 0 1 0 6 0 a3 3 0 1 0 -6 0zM1395 282 a3 3 0 1 0 6 0 a3 3 0 1 0 -6 0zM1155 234 a3 3 0 1 0 6 0 a3 3 0 1 0 -6 0zM1167 234 a3 3 0 1 0 6 0 a3 3 0 1 0 -6 0zM1203 234 a3 3 0 1 0 6 0 a3 3 0 1 0 -6 0zM1179 234 a3 3 0 1 0 6 0 a3 3 0 1 0 -6 0zM927 246 a3 3 0 1 0 6 0 a3 3 0 1 0 -6 0z" fill="rgba(161, 241, 108, 1)"></path>
            <path d="M1386 534L1374 534M1254 570L1242 558M918 618L906 606L894 606L882 606L870 606L858 606L846 606L834 606L822 606L810 606L798 606M1170 582L1158 570L1146 570L1134 570M1302 570L1290 558L1278 558L1266 558L1254 558M1182 582L1170 570M990 618L978 606L966 606L954 606L942 606L930 606L918 606L906 594L894 594L882 594L870 594L858 594L846 594L834 594L822 594L810 594L798 594L786 594M1074 582L1062 582L1050 582L1038 582L1026 582L1014 582L1002 582L990 582L978 582L966 582L954 582L942 582L930 582L918 582M1338 558L1326 558L1314 558L1302 558L1290 546M822 630L810 630L798 630L786 630L774 630M762 618L750 630L738 630L726 630L714 630L702 630L690 630L678 630L666 630L654 630L642 630L630 630M702 618L690 606L678 606L666 606L654 606M1014 606L1002 606L990 606L978 594L966 594L954 594L942 594L930 594L918 594M846 618L834 618L822 618M1026 606L1014 594M726 618L714 606L702 606L690 594L678 582L666 582M1086 582L1074 570M1458 510L1446 510L1434 522L1422 534L1410 534L1398 534L1386 534L1374 546L1362 546L1350 546L1338 558L1326 570L1314 570L1302 570L1290 570L1278 570L1266 570L1254 570L1242 570L1230 570L1218 582L1206 582L1194 582L1182 582L1170 582L1158 582L1146 582L1134 582L1122 582L1110 582L1098 582L1086 582L1074 582L1062 594L1050 594L1038 594L1026 606L1014 606L1002 618L990 618L978 618L966 618L954 618L942 618L930 618L918 618L906 618L894 618L882 618L870 618L858 618L846 618L834 630L822 630L810 618L798 618L786 618L774 618L762 618L750 618L738 618L726 618L714 618L702 618L690 618L678 618L666 618L654 618L642 618" stroke="rgba(161, 241, 108, 1)" stroke-width="2"></path>
            <path d="M639 618 a3 3 0 1 0 6 0 a3 3 0 1 0 -6 0zM1371 534 a3 3 0 1 0 6 0 a3 3 0 1 0 -6 0zM1239 558 a3 3 0 1 0 6 0 a3 3 0 1 0 -6 0zM795 606 a3 3 0 1 0 6 0 a3 3 0 1 0 -6 0zM1131 570 a3 3 0 1 0 6 0 a3 3 0 1 0 -6 0zM1251 558 a3 3 0 1 0 6 0 a3 3 0 1 0 -6 0zM1167 570 a3 3 0 1 0 6 0 a3 3 0 1 0 -6 0zM783 594 a3 3 0 1 0 6 0 a3 3 0 1 0 -6 0zM915 582 a3 3 0 1 0 6 0 a3 3 0 1 0 -6 0zM1287 546 a3 3 0 1 0 6 0 a3 3 0 1 0 -6 0zM771 630 a3 3 0 1 0 6 0 a3 3 0 1 0 -6 0zM627 630 a3 3 0 1 0 6 0 a3 3 0 1 0 -6 0zM651 606 a3 3 0 1 0 6 0 a3 3 0 1 0 -6 0zM915 594 a3 3 0 1 0 6 0 a3 3 0 1 0 -6 0zM819 618 a3 3 0 1 0 6 0 a3 3 0 1 0 -6 0zM1011 594 a3 3 0 1 0 6 0 a3 3 0 1 0 -6 0zM663 582 a3 3 0 1 0 6 0 a3 3 0 1 0 -6 0zM1071 570 a3 3 0 1 0 6 0 a3 3 0 1 0 -6 0z" fill="rgba(161, 241, 108, 1)"></path>
            <path d="M870 222L858 210L846 210L834 210M1338 246L1326 234M1182 222L1170 210L1158 210L1146 210M1326 246L1314 246M990 234L978 222L966 222L954 210L942 210M1434 282L1422 282L1410 282M846 222L834 234M930 222L918 210L906 210L894 210M1026 222L1014 210L1002 210L990 210L978 210L966 210L954 198L942 198L930 198L918 198L906 198L894 186L882 186L870 186M1038 222L1026 210M882 222L870 210L858 198L846 198L834 198L822 198L810 198L798 186L786 186L774 186L762 186M1014 222L1002 222L990 222M1266 234L1254 222M1458 282L1446 282L1434 282L1422 270L1410 270L1398 270L1386 270L1374 258L1362 258L1350 246L1338 246L1326 246L1314 234L1302 234L1290 234L1278 234L1266 234L1254 234L1242 222L1230 222L1218 222L1206 222L1194 222L1182 222L1170 222L1158 222L1146 222L1134 222L1122 222L1110 222L1098 222L1086 222L1074 222L1062 222L1050 222L1038 222L1026 222L1014 222L1002 234L990 234L978 234L966 234L954 222L942 222L930 222L918 222L906 222L894 222L882 222L870 222L858 222L846 222L834 222L822 222L810 222" stroke="rgba(214, 135, 249, 1)" stroke-width="2"></path>
            <path d="M807 222 a3 3 0 1 0 6 0 a3 3 0 1 0 -6 0zM831 210 a3 3 0 1 0 6 0 a3 3 0 1 0 -6 0zM1323 234 a3 3 0 1 0 6 0 a3 3 0 1 0 -6 0zM1143 210 a3 3 0 1 0 6 0 a3 3 0 1 0 -6 0zM1311 246 a3 3 0 1 0 6 0 a3 3 0 1 0 -6 0zM939 210 a3 3 0 1 0 6 0 a3 3 0 1 0 -6 0zM1407 282 a3 3 0 1 0 6 0 a3 3 0 1 0 -6 0zM831 234 a3 3 0 1 0 6 0 a3 3 0 1 0 -6 0zM891 210 a3 3 0 1 0 6 0 a3 3 0 1 0 -6 0zM867 186 a3 3 0 1 0 6 0 a3 3 0 1 0 -6 0zM1023 210 a3 3 0 1 0 6 0 a3 3 0 1 0 -6 0zM759 186 a3 3 0 1 0 6 0 a3 3 0 1 0 -6 0zM987 222 a3 3 0 1 0 6 0 a3 3 0 1 0 -6 0zM1251 222 a3 3 0 1 0 6 0 a3 3 0 1 0 -6 0z" fill="rgba(214, 135, 249, 1)"></path>
            <path d="M1398 546L1386 558M1410 546L1398 558M714 654L702 642L690 642L678 642L666 642L654 642L642 642L630 642L618 642L606 642L594 642L582 642L570 642M1050 606L1038 618M774 642L762 642L750 642L738 642L726 642L714 642M1458 522L1446 522L1434 534L1422 546L1410 546L1398 546L1386 546L1374 558L1362 558L1350 558L1338 570L1326 582L1314 582L1302 582L1290 582L1278 582L1266 582L1254 582L1242 582L1230 582L1218 594L1206 594L1194 594L1182 594L1170 594L1158 594L1146 594L1134 594L1122 594L1110 594L1098 594L1086 594L1074 594L1062 606L1050 606L1038 606L1026 618L1014 618L1002 630L990 630L978 630L966 630L954 630L942 630L930 630L918 630L906 630L894 630L882 630L870 630L858 630L846 630L834 642L822 642L810 642L798 642L786 642L774 642L762 654L750 654L738 654L726 654L714 654L702 654" stroke="rgba(78, 125, 161, 1)" stroke-width="2"></path>
            <path d="M699 654 a3 3 0 1 0 6 0 a3 3 0 1 0 -6 0zM1383 558 a3 3 0 1 0 6 0 a3 3 0 1 0 -6 0zM1395 558 a3 3 0 1 0 6 0 a3 3 0 1 0 -6 0zM567 642 a3 3 0 1 0 6 0 a3 3 0 1 0 -6 0zM1035 618 a3 3 0 1 0 6 0 a3 3 0 1 0 -6 0zM711 642 a3 3 0 1 0 6 0 a3 3 0 1 0 -6 0z" fill="rgba(78, 125, 161, 1)"></path>
            <path d="M1194 210L1182 210M1062 198L1050 210L1038 210M1002 186L990 198L978 198M1134 210L1122 198M1290 222L1278 210M1074 210L1062 210M1146 198L1134 198M1110 210L1098 198M1026 198L1014 198L1002 198M990 186L978 174L966 174L954 174L942 174L930 174L918 174M1458 270L1446 270L1434 258L1422 258L1410 258L1398 258L1386 258L1374 246L1362 246L1350 234L1338 222L1326 222L1314 222L1302 222L1290 222L1278 222L1266 210L1254 210L1242 210L1230 210L1218 210L1206 210L1194 210L1182 198L1170 198L1158 198L1146 198L1134 210L1122 210L1110 210L1098 210L1086 210L1074 210L1062 198L1050 198L1038 198L1026 198L1014 186L1002 186L990 186L978 186L966 186" stroke="rgba(161, 241, 108, 1)" stroke-width="2"></path>
            <path d="M963 186 a3 3 0 1 0 6 0 a3 3 0 1 0 -6 0zM1179 210 a3 3 0 1 0 6 0 a3 3 0 1 0 -6 0zM1035 210 a3 3 0 1 0 6 0 a3 3 0 1 0 -6 0zM975 198 a3 3 0 1 0 6 0 a3 3 0 1 0 -6 0zM1119 198 a3 3 0 1 0 6 0 a3 3 0 1 0 -6 0zM1275 210 a3 3 0 1 0 6 0 a3 3 0 1 0 -6 0zM1059 210 a3 3 0 1 0 6 0 a3 3 0 1 0 -6 0zM1131 198 a3 3 0 1 0 6 0 a3 3 0 1 0 -6 0zM1095 198 a3 3 0 1 0 6 0 a3 3 0 1 0 -6 0zM999 198 a3 3 0 1 0 6 0 a3 3 0 1 0 -6 0zM915 174 a3 3 0 1 0 6 0 a3 3 0 1 0 -6 0z" fill="rgba(161, 241, 108, 1)"></path>
            <path d="M978 162L966 150L954 150M1122 186L1110 174L1098 174L1086 162L1074 162L1062 162M990 162L978 150M834 162L822 174L810 174L798 174L786 174L774 174M858 162L846 150M906 162L894 174L882 174L870 174M1374 234L1362 234M1146 186L1134 174L1122 174L1110 162L1098 162M1002 174L990 174M822 162L810 150L798 150L786 150L774 150L762 150L750 150M1422 246L1410 234L1398 234L1386 234M1434 246L1422 234M930 162L918 150L906 150L894 150L882 150L870 150L858 138L846 138L834 138L822 138L810 138L798 138L786 138L774 138L762 138L750 138M1458 258L1446 246L1434 246L1422 246L1410 246L1398 246L1386 246L1374 234L1362 222L1350 222L1338 210L1326 210L1314 210L1302 210L1290 198L1278 198L1266 198L1254 198L1242 198L1230 198L1218 198L1206 198L1194 198L1182 186L1170 186L1158 186L1146 186L1134 186L1122 186L1110 186L1098 186L1086 198L1074 198L1062 186L1050 186L1038 186L1026 186L1014 174L1002 174L990 162L978 162L966 162L954 162L942 162L930 162L918 162L906 162L894 162L882 162L870 162L858 162L846 162L834 162L822 162L810 162" stroke="rgba(78, 125, 161, 1)" stroke-width="2"></path>
            <path d="M807 162 a3 3 0 1 0 6 0 a3 3 0 1 0 -6 0zM951 150 a3 3 0 1 0 6 0 a3 3 0 1 0 -6 0zM1059 162 a3 3 0 1 0 6 0 a3 3 0 1 0 -6 0zM975 150 a3 3 0 1 0 6 0 a3 3 0 1 0 -6 0zM771 174 a3 3 0 1 0 6 0 a3 3 0 1 0 -6 0zM843 150 a3 3 0 1 0 6 0 a3 3 0 1 0 -6 0zM867 174 a3 3 0 1 0 6 0 a3 3 0 1 0 -6 0zM1359 234 a3 3 0 1 0 6 0 a3 3 0 1 0 -6 0zM1095 162 a3 3 0 1 0 6 0 a3 3 0 1 0 -6 0zM987 174 a3 3 0 1 0 6 0 a3 3 0 1 0 -6 0zM747 150 a3 3 0 1 0 6 0 a3 3 0 1 0 -6 0zM1383 234 a3 3 0 1 0 6 0 a3 3 0 1 0 -6 0zM1419 234 a3 3 0 1 0 6 0 a3 3 0 1 0 -6 0zM747 138 a3 3 0 1 0 6 0 a3 3 0 1 0 -6 0z" fill="rgba(78, 125, 161, 1)"></path>
            <path d="M1278 594L1266 606L1254 606L1242 606L1230 606M1422 558L1410 558M678 666L666 654L654 654M1062 618L1050 618M1290 594L1278 606M690 666L678 654M786 654L774 666M882 642L870 654M642 654L630 666M810 654L798 666L786 666M654 666L642 666M1458 546L1446 546L1434 546L1422 558L1410 570L1398 570L1386 570L1374 570L1362 570L1350 570L1338 582L1326 594L1314 594L1302 594L1290 594L1278 594L1266 594L1254 594L1242 594L1230 594L1218 606L1206 606L1194 606L1182 606L1170 606L1158 606L1146 606L1134 606L1122 606L1110 606L1098 606L1086 606L1074 606L1062 618L1050 630L1038 630L1026 630L1014 630L1002 642L990 642L978 642L966 642L954 642L942 642L930 642L918 642L906 642L894 642L882 642L870 642L858 642L846 642L834 654L822 654L810 654L798 654L786 654L774 654L762 666L750 666L738 666L726 666L714 666L702 666L690 666L678 666L666 666L654 666L642 654L630 654L618 654" stroke="rgba(255, 78, 78, 1)" stroke-width="2"></path>
            <path d="M615 654 a3 3 0 1 0 6 0 a3 3 0 1 0 -6 0zM1227 606 a3 3 0 1 0 6 0 a3 3 0 1 0 -6 0zM1407 558 a3 3 0 1 0 6 0 a3 3 0 1 0 -6 0zM651 654 a3 3 0 1 0 6 0 a3 3 0 1 0 -6 0zM1047 618 a3 3 0 1 0 6 0 a3 3 0 1 0 -6 0zM1275 606 a3 3 0 1 0 6 0 a3 3 0 1 0 -6 0zM675 654 a3 3 0 1 0 6 0 a3 3 0 1 0 -6 0zM771 666 a3 3 0 1 0 6 0 a3 3 0 1 0 -6 0zM867 654 a3 3 0 1 0 6 0 a3 3 0 1 0 -6 0zM627 666 a3 3 0 1 0 6 0 a3 3 0 1 0 -6 0zM783 666 a3 3 0 1 0 6 0 a3 3 0 1 0 -6 0zM639 666 a3 3 0 1 0 6 0 a3 3 0 1 0 -6 0z" fill="rgba(255, 78, 78, 1)"></path>
            <path d="M1458 558L1446 558L1434 558L1422 570L1410 582L1398 582L1386 582L1374 582L1362 582L1350 582L1338 594L1326 606L1314 606L1302 606" stroke="rgba(161, 241, 108, 1)" stroke-width="2"></path>
            <path d="M1299 606 a3 3 0 1 0 6 0 a3 3 0 1 0 -6 0z" fill="rgba(161, 241, 108, 1)"></path>
            <path d="M1446 222L1434 234M1458 234L1446 222L1434 222L1422 222L1410 222L1398 222L1386 222L1374 222L1362 210L1350 210L1338 198L1326 198" stroke="rgba(214, 135, 249, 1)" stroke-width="2"></path>
            <path d="M1323 198 a3 3 0 1 0 6 0 a3 3 0 1 0 -6 0zM1431 234 a3 3 0 1 0 6 0 a3 3 0 1 0 -6 0z" fill="rgba(214, 135, 249, 1)"></path>
            <path d="M1194 618L1182 630L1170 630L1158 630L1146 630L1134 630L1122 630L1110 630L1098 642L1086 642L1074 642M990 654L978 666L966 666L954 678L942 678L930 678L918 678L906 678L894 678L882 678L870 678L858 666L846 666L834 678L822 678L810 690L798 690L786 690L774 690L762 690L750 690L738 690M1050 642L1038 654L1026 654L1014 654L1002 666L990 678L978 678L966 690L954 690M1266 618L1254 630L1242 630M714 678L702 690L690 690L678 690M1218 618L1206 630L1194 630M642 678L630 690L618 690L606 690M1302 630L1290 618L1278 618M822 666L810 666M1086 618L1074 630M666 678L654 690L642 690L630 702L618 702L606 702L594 702L582 714M558 678L546 678L534 678L522 678L510 678L498 678L486 678L474 678L462 678M894 654L882 654M618 678L606 666L594 666L582 666L570 666L558 666L546 654M1362 594L1350 594M1278 630L1266 630L1254 642L1242 642L1230 642L1218 642L1206 642L1194 642L1182 642L1170 654L1158 654M918 654L906 666L894 666M1290 630L1278 642L1266 642L1254 654L1242 654L1230 654L1218 654L1206 654L1194 654L1182 654M930 654L918 666M1458 570L1446 570L1434 570L1422 582L1410 594L1398 594L1386 594L1374 594L1362 594L1350 606L1338 606L1326 618L1314 618L1302 630L1290 630L1278 630L1266 618L1254 618L1242 618L1230 618L1218 618L1206 618L1194 618L1182 618L1170 618L1158 618L1146 618L1134 618L1122 618L1110 618L1098 618L1086 618L1074 618L1062 630L1050 642L1038 642L1026 642L1014 642L1002 654L990 654L978 654L966 654L954 654L942 654L930 654L918 654L906 654L894 654L882 666L870 666L858 654L846 654L834 666L822 666L810 678L798 678L786 678L774 678L762 678L750 678L738 678L726 678L714 678L702 678L690 678L678 678L666 678L654 678L642 678L630 678L618 678L606 678L594 678L582 678L570 678L558 678L546 666" stroke="rgba(78, 125, 161, 1)" stroke-width="2"></path>
            <path d="M543 666 a3 3 0 1 0 6 0 a3 3 0 1 0 -6 0zM1071 642 a3 3 0 1 0 6 0 a3 3 0 1 0 -6 0zM735 690 a3 3 0 1 0 6 0 a3 3 0 1 0 -6 0zM951 690 a3 3 0 1 0 6 0 a3 3 0 1 0 -6 0zM1239 630 a3 3 0 1 0 6 0 a3 3 0 1 0 -6 0zM675 690 a3 3 0 1 0 6 0 a3 3 0 1 0 -6 0zM1191 630 a3 3 0 1 0 6 0 a3 3 0 1 0 -6 0zM603 690 a3 3 0 1 0 6 0 a3 3 0 1 0 -6 0zM1275 618 a3 3 0 1 0 6 0 a3 3 0 1 0 -6 0zM807 666 a3 3 0 1 0 6 0 a3 3 0 1 0 -6 0zM1071 630 a3 3 0 1 0 6 0 a3 3 0 1 0 -6 0zM579 714 a3 3 0 1 0 6 0 a3 3 0 1 0 -6 0zM459 678 a3 3 0 1 0 6 0 a3 3 0 1 0 -6 0zM879 654 a3 3 0 1 0 6 0 a3 3 0 1 0 -6 0zM543 654 a3 3 0 1 0 6 0 a3 3 0 1 0 -6 0zM1347 594 a3 3 0 1 0 6 0 a3 3 0 1 0 -6 0zM1155 654 a3 3 0 1 0 6 0 a3 3 0 1 0 -6 0zM891 666 a3 3 0 1 0 6 0 a3 3 0 1 0 -6 0zM1179 654 a3 3 0 1 0 6 0 a3 3 0 1 0 -6 0zM915 666 a3 3 0 1 0 6 0 a3 3 0 1 0 -6 0z" fill="rgba(78, 125, 161, 1)"></path>
            <path d="M1374 606L1362 618L1350 630L1338 630M1326 630L1314 642L1302 642L1290 642L1278 654M1446 582L1434 594L1422 606M1458 582L1446 582L1434 582L1422 594L1410 606L1398 606L1386 606L1374 606L1362 606L1350 618L1338 618L1326 630L1314 630" stroke="rgba(214, 135, 249, 1)" stroke-width="2"></path>
            <path d="M1311 630 a3 3 0 1 0 6 0 a3 3 0 1 0 -6 0zM1335 630 a3 3 0 1 0 6 0 a3 3 0 1 0 -6 0zM1275 654 a3 3 0 1 0 6 0 a3 3 0 1 0 -6 0zM1419 606 a3 3 0 1 0 6 0 a3 3 0 1 0 -6 0z" fill="rgba(214, 135, 249, 1)"></path>
            <path d="M1326 186L1314 174L1302 174L1290 174L1278 174L1266 174L1254 174L1242 174L1230 174L1218 174M1206 186L1194 174M1146 162L1134 150L1122 150L1110 150L1098 150M1338 186L1326 174L1314 162L1302 162L1290 162L1278 162L1266 162L1254 162L1242 150L1230 150L1218 150M1446 210L1434 198M1386 210L1374 198L1362 186L1350 186L1338 174L1326 162L1314 150L1302 150L1290 150L1278 150M1158 174L1146 174M1458 210L1446 210L1434 210L1422 210L1410 210L1398 210L1386 210L1374 210L1362 198L1350 198L1338 186L1326 186L1314 186L1302 186L1290 186L1278 186L1266 186L1254 186L1242 186L1230 186L1218 186L1206 186L1194 186L1182 174L1170 174L1158 174L1146 162L1134 162" stroke="rgba(255, 78, 78, 1)" stroke-width="2"></path>
            <path d="M1131 162 a3 3 0 1 0 6 0 a3 3 0 1 0 -6 0zM1215 174 a3 3 0 1 0 6 0 a3 3 0 1 0 -6 0zM1191 174 a3 3 0 1 0 6 0 a3 3 0 1 0 -6 0zM1095 150 a3 3 0 1 0 6 0 a3 3 0 1 0 -6 0zM1215 150 a3 3 0 1 0 6 0 a3 3 0 1 0 -6 0zM1431 198 a3 3 0 1 0 6 0 a3 3 0 1 0 -6 0zM1275 150 a3 3 0 1 0 6 0 a3 3 0 1 0 -6 0zM1143 174 a3 3 0 1 0 6 0 a3 3 0 1 0 -6 0z" fill="rgba(255, 78, 78, 1)"></path>
        </g>
    </g>
    <defs>
        <mask id="SvgjsMask1332">
            <rect width="1440" height="800" fill="#ffffff"></rect>
        </mask>
        <mask id="SvgjsMask1333">
            <rect width="1440" height="800" fill="white"></rect>
            <path d="M952.5 402 a1.5 1.5 0 1 0 3 0 a1.5 1.5 0 1 0 -3 0zM1072.5 390 a1.5 1.5 0 1 0 3 0 a1.5 1.5 0 1 0 -3 0zM1408.5 402 a1.5 1.5 0 1 0 3 0 a1.5 1.5 0 1 0 -3 0zM1288.5 414 a1.5 1.5 0 1 0 3 0 a1.5 1.5 0 1 0 -3 0zM1336.5 402 a1.5 1.5 0 1 0 3 0 a1.5 1.5 0 1 0 -3 0zM1120.5 426 a1.5 1.5 0 1 0 3 0 a1.5 1.5 0 1 0 -3 0zM1180.5 414 a1.5 1.5 0 1 0 3 0 a1.5 1.5 0 1 0 -3 0zM1252.5 378 a1.5 1.5 0 1 0 3 0 a1.5 1.5 0 1 0 -3 0zM1384.5 402 a1.5 1.5 0 1 0 3 0 a1.5 1.5 0 1 0 -3 0zM1180.5 390 a1.5 1.5 0 1 0 3 0 a1.5 1.5 0 1 0 -3 0zM844.5 426 a1.5 1.5 0 1 0 3 0 a1.5 1.5 0 1 0 -3 0z" fill="black"></path>
            <path d="M1252.5 426 a1.5 1.5 0 1 0 3 0 a1.5 1.5 0 1 0 -3 0zM1408.5 414 a1.5 1.5 0 1 0 3 0 a1.5 1.5 0 1 0 -3 0zM1312.5 414 a1.5 1.5 0 1 0 3 0 a1.5 1.5 0 1 0 -3 0zM1348.5 426 a1.5 1.5 0 1 0 3 0 a1.5 1.5 0 1 0 -3 0zM1420.5 402 a1.5 1.5 0 1 0 3 0 a1.5 1.5 0 1 0 -3 0z" fill="black"></path>
            <path d="M640.5 354 a1.5 1.5 0 1 0 3 0 a1.5 1.5 0 1 0 -3 0zM1264.5 354 a1.5 1.5 0 1 0 3 0 a1.5 1.5 0 1 0 -3 0zM856.5 378 a1.5 1.5 0 1 0 3 0 a1.5 1.5 0 1 0 -3 0zM1156.5 378 a1.5 1.5 0 1 0 3 0 a1.5 1.5 0 1 0 -3 0zM916.5 378 a1.5 1.5 0 1 0 3 0 a1.5 1.5 0 1 0 -3 0zM640.5 342 a1.5 1.5 0 1 0 3 0 a1.5 1.5 0 1 0 -3 0zM772.5 342 a1.5 1.5 0 1 0 3 0 a1.5 1.5 0 1 0 -3 0zM1048.5 354 a1.5 1.5 0 1 0 3 0 a1.5 1.5 0 1 0 -3 0zM976.5 342 a1.5 1.5 0 1 0 3 0 a1.5 1.5 0 1 0 -3 0zM1252.5 342 a1.5 1.5 0 1 0 3 0 a1.5 1.5 0 1 0 -3 0zM628.5 366 a1.5 1.5 0 1 0 3 0 a1.5 1.5 0 1 0 -3 0zM1276.5 342 a1.5 1.5 0 1 0 3 0 a1.5 1.5 0 1 0 -3 0zM1204.5 342 a1.5 1.5 0 1 0 3 0 a1.5 1.5 0 1 0 -3 0zM1288.5 342 a1.5 1.5 0 1 0 3 0 a1.5 1.5 0 1 0 -3 0zM568.5 330 a1.5 1.5 0 1 0 3 0 a1.5 1.5 0 1 0 -3 0zM1396.5 366 a1.5 1.5 0 1 0 3 0 a1.5 1.5 0 1 0 -3 0zM1120.5 354 a1.5 1.5 0 1 0 3 0 a1.5 1.5 0 1 0 -3 0zM1216.5 342 a1.5 1.5 0 1 0 3 0 a1.5 1.5 0 1 0 -3 0z" fill="black"></path>
            <path d="M1360.5 438 a1.5 1.5 0 1 0 3 0 a1.5 1.5 0 1 0 -3 0zM1432.5 426 a1.5 1.5 0 1 0 3 0 a1.5 1.5 0 1 0 -3 0z" fill="black"></path>
            <path d="M1336.5 342 a1.5 1.5 0 1 0 3 0 a1.5 1.5 0 1 0 -3 0zM1348.5 354 a1.5 1.5 0 1 0 3 0 a1.5 1.5 0 1 0 -3 0zM1408.5 366 a1.5 1.5 0 1 0 3 0 a1.5 1.5 0 1 0 -3 0zM1372.5 354 a1.5 1.5 0 1 0 3 0 a1.5 1.5 0 1 0 -3 0z" fill="black"></path>
            <path d="M1168.5 426 a1.5 1.5 0 1 0 3 0 a1.5 1.5 0 1 0 -3 0zM1252.5 450 a1.5 1.5 0 1 0 3 0 a1.5 1.5 0 1 0 -3 0zM1216.5 438 a1.5 1.5 0 1 0 3 0 a1.5 1.5 0 1 0 -3 0zM1324.5 462 a1.5 1.5 0 1 0 3 0 a1.5 1.5 0 1 0 -3 0zM1324.5 438 a1.5 1.5 0 1 0 3 0 a1.5 1.5 0 1 0 -3 0zM1084.5 438 a1.5 1.5 0 1 0 3 0 a1.5 1.5 0 1 0 -3 0zM1300.5 450 a1.5 1.5 0 1 0 3 0 a1.5 1.5 0 1 0 -3 0z" fill="black"></path>
            <path d="M568.5 258 a1.5 1.5 0 1 0 3 0 a1.5 1.5 0 1 0 -3 0zM568.5 246 a1.5 1.5 0 1 0 3 0 a1.5 1.5 0 1 0 -3 0zM1072.5 306 a1.5 1.5 0 1 0 3 0 a1.5 1.5 0 1 0 -3 0zM856.5 330 a1.5 1.5 0 1 0 3 0 a1.5 1.5 0 1 0 -3 0zM1300.5 318 a1.5 1.5 0 1 0 3 0 a1.5 1.5 0 1 0 -3 0zM1108.5 318 a1.5 1.5 0 1 0 3 0 a1.5 1.5 0 1 0 -3 0zM688.5 294 a1.5 1.5 0 1 0 3 0 a1.5 1.5 0 1 0 -3 0zM1156.5 306 a1.5 1.5 0 1 0 3 0 a1.5 1.5 0 1 0 -3 0zM844.5 306 a1.5 1.5 0 1 0 3 0 a1.5 1.5 0 1 0 -3 0zM1144.5 342 a1.5 1.5 0 1 0 3 0 a1.5 1.5 0 1 0 -3 0zM544.5 294 a1.5 1.5 0 1 0 3 0 a1.5 1.5 0 1 0 -3 0zM868.5 330 a1.5 1.5 0 1 0 3 0 a1.5 1.5 0 1 0 -3 0zM1036.5 330 a1.5 1.5 0 1 0 3 0 a1.5 1.5 0 1 0 -3 0zM856.5 270 a1.5 1.5 0 1 0 3 0 a1.5 1.5 0 1 0 -3 0zM1120.5 318 a1.5 1.5 0 1 0 3 0 a1.5 1.5 0 1 0 -3 0zM1252.5 318 a1.5 1.5 0 1 0 3 0 a1.5 1.5 0 1 0 -3 0zM700.5 270 a1.5 1.5 0 1 0 3 0 a1.5 1.5 0 1 0 -3 0zM1300.5 342 a1.5 1.5 0 1 0 3 0 a1.5 1.5 0 1 0 -3 0zM580.5 318 a1.5 1.5 0 1 0 3 0 a1.5 1.5 0 1 0 -3 0z" fill="black"></path>
            <path d="M796.5 486 a1.5 1.5 0 1 0 3 0 a1.5 1.5 0 1 0 -3 0zM1060.5 474 a1.5 1.5 0 1 0 3 0 a1.5 1.5 0 1 0 -3 0zM1108.5 450 a1.5 1.5 0 1 0 3 0 a1.5 1.5 0 1 0 -3 0zM1372.5 462 a1.5 1.5 0 1 0 3 0 a1.5 1.5 0 1 0 -3 0zM796.5 462 a1.5 1.5 0 1 0 3 0 a1.5 1.5 0 1 0 -3 0zM1264.5 462 a1.5 1.5 0 1 0 3 0 a1.5 1.5 0 1 0 -3 0zM760.5 462 a1.5 1.5 0 1 0 3 0 a1.5 1.5 0 1 0 -3 0zM916.5 486 a1.5 1.5 0 1 0 3 0 a1.5 1.5 0 1 0 -3 0zM1396.5 462 a1.5 1.5 0 1 0 3 0 a1.5 1.5 0 1 0 -3 0zM1024.5 474 a1.5 1.5 0 1 0 3 0 a1.5 1.5 0 1 0 -3 0zM808.5 474 a1.5 1.5 0 1 0 3 0 a1.5 1.5 0 1 0 -3 0zM832.5 486 a1.5 1.5 0 1 0 3 0 a1.5 1.5 0 1 0 -3 0zM1312.5 486 a1.5 1.5 0 1 0 3 0 a1.5 1.5 0 1 0 -3 0zM1360.5 486 a1.5 1.5 0 1 0 3 0 a1.5 1.5 0 1 0 -3 0zM940.5 450 a1.5 1.5 0 1 0 3 0 a1.5 1.5 0 1 0 -3 0z" fill="black"></path>
            <path d="M1108.5 306 a1.5 1.5 0 1 0 3 0 a1.5 1.5 0 1 0 -3 0zM1168.5 294 a1.5 1.5 0 1 0 3 0 a1.5 1.5 0 1 0 -3 0zM1312.5 306 a1.5 1.5 0 1 0 3 0 a1.5 1.5 0 1 0 -3 0zM1216.5 294 a1.5 1.5 0 1 0 3 0 a1.5 1.5 0 1 0 -3 0zM1120.5 294 a1.5 1.5 0 1 0 3 0 a1.5 1.5 0 1 0 -3 0zM1156.5 282 a1.5 1.5 0 1 0 3 0 a1.5 1.5 0 1 0 -3 0zM1252.5 294 a1.5 1.5 0 1 0 3 0 a1.5 1.5 0 1 0 -3 0zM1348.5 306 a1.5 1.5 0 1 0 3 0 a1.5 1.5 0 1 0 -3 0z" fill="black"></path>
            <path d="M436.5 486 a1.5 1.5 0 1 0 3 0 a1.5 1.5 0 1 0 -3 0zM748.5 522 a1.5 1.5 0 1 0 3 0 a1.5 1.5 0 1 0 -3 0zM652.5 498 a1.5 1.5 0 1 0 3 0 a1.5 1.5 0 1 0 -3 0zM904.5 522 a1.5 1.5 0 1 0 3 0 a1.5 1.5 0 1 0 -3 0zM316.5 450 a1.5 1.5 0 1 0 3 0 a1.5 1.5 0 1 0 -3 0zM976.5 522 a1.5 1.5 0 1 0 3 0 a1.5 1.5 0 1 0 -3 0zM508.5 438 a1.5 1.5 0 1 0 3 0 a1.5 1.5 0 1 0 -3 0zM892.5 510 a1.5 1.5 0 1 0 3 0 a1.5 1.5 0 1 0 -3 0zM1276.5 498 a1.5 1.5 0 1 0 3 0 a1.5 1.5 0 1 0 -3 0zM928.5 510 a1.5 1.5 0 1 0 3 0 a1.5 1.5 0 1 0 -3 0zM400.5 498 a1.5 1.5 0 1 0 3 0 a1.5 1.5 0 1 0 -3 0zM316.5 474 a1.5 1.5 0 1 0 3 0 a1.5 1.5 0 1 0 -3 0zM784.5 498 a1.5 1.5 0 1 0 3 0 a1.5 1.5 0 1 0 -3 0zM460.5 474 a1.5 1.5 0 1 0 3 0 a1.5 1.5 0 1 0 -3 0zM1144.5 498 a1.5 1.5 0 1 0 3 0 a1.5 1.5 0 1 0 -3 0zM688.5 450 a1.5 1.5 0 1 0 3 0 a1.5 1.5 0 1 0 -3 0zM664.5 486 a1.5 1.5 0 1 0 3 0 a1.5 1.5 0 1 0 -3 0zM1372.5 486 a1.5 1.5 0 1 0 3 0 a1.5 1.5 0 1 0 -3 0zM940.5 510 a1.5 1.5 0 1 0 3 0 a1.5 1.5 0 1 0 -3 0zM448.5 462 a1.5 1.5 0 1 0 3 0 a1.5 1.5 0 1 0 -3 0zM904.5 510 a1.5 1.5 0 1 0 3 0 a1.5 1.5 0 1 0 -3 0zM1300.5 498 a1.5 1.5 0 1 0 3 0 a1.5 1.5 0 1 0 -3 0z" fill="black"></path>
            <path d="M1060.5 282 a1.5 1.5 0 1 0 3 0 a1.5 1.5 0 1 0 -3 0zM1096.5 294 a1.5 1.5 0 1 0 3 0 a1.5 1.5 0 1 0 -3 0zM1096.5 270 a1.5 1.5 0 1 0 3 0 a1.5 1.5 0 1 0 -3 0zM1132.5 270 a1.5 1.5 0 1 0 3 0 a1.5 1.5 0 1 0 -3 0zM1072.5 294 a1.5 1.5 0 1 0 3 0 a1.5 1.5 0 1 0 -3 0zM1144.5 270 a1.5 1.5 0 1 0 3 0 a1.5 1.5 0 1 0 -3 0z" fill="black"></path>
            <path d="M1336.5 522 a1.5 1.5 0 1 0 3 0 a1.5 1.5 0 1 0 -3 0zM1396.5 510 a1.5 1.5 0 1 0 3 0 a1.5 1.5 0 1 0 -3 0zM1300.5 522 a1.5 1.5 0 1 0 3 0 a1.5 1.5 0 1 0 -3 0z" fill="black"></path>
            <path d="M940.5 534 a1.5 1.5 0 1 0 3 0 a1.5 1.5 0 1 0 -3 0zM1000.5 558 a1.5 1.5 0 1 0 3 0 a1.5 1.5 0 1 0 -3 0zM1084.5 558 a1.5 1.5 0 1 0 3 0 a1.5 1.5 0 1 0 -3 0zM1432.5 498 a1.5 1.5 0 1 0 3 0 a1.5 1.5 0 1 0 -3 0zM1312.5 546 a1.5 1.5 0 1 0 3 0 a1.5 1.5 0 1 0 -3 0zM1096.5 570 a1.5 1.5 0 1 0 3 0 a1.5 1.5 0 1 0 -3 0zM1096.5 534 a1.5 1.5 0 1 0 3 0 a1.5 1.5 0 1 0 -3 0zM1264.5 534 a1.5 1.5 0 1 0 3 0 a1.5 1.5 0 1 0 -3 0zM904.5 546 a1.5 1.5 0 1 0 3 0 a1.5 1.5 0 1 0 -3 0zM976.5 546 a1.5 1.5 0 1 0 3 0 a1.5 1.5 0 1 0 -3 0zM916.5 570 a1.5 1.5 0 1 0 3 0 a1.5 1.5 0 1 0 -3 0zM1348.5 534 a1.5 1.5 0 1 0 3 0 a1.5 1.5 0 1 0 -3 0z" fill="black"></path>
            <path d="M1012.5 270 a1.5 1.5 0 1 0 3 0 a1.5 1.5 0 1 0 -3 0zM976.5 270 a1.5 1.5 0 1 0 3 0 a1.5 1.5 0 1 0 -3 0zM916.5 258 a1.5 1.5 0 1 0 3 0 a1.5 1.5 0 1 0 -3 0zM1048.5 258 a1.5 1.5 0 1 0 3 0 a1.5 1.5 0 1 0 -3 0zM1000.5 294 a1.5 1.5 0 1 0 3 0 a1.5 1.5 0 1 0 -3 0z" fill="black"></path>
            <path d="M892.5 234 a1.5 1.5 0 1 0 3 0 a1.5 1.5 0 1 0 -3 0zM904.5 246 a1.5 1.5 0 1 0 3 0 a1.5 1.5 0 1 0 -3 0zM1012.5 234 a1.5 1.5 0 1 0 3 0 a1.5 1.5 0 1 0 -3 0zM1084.5 234 a1.5 1.5 0 1 0 3 0 a1.5 1.5 0 1 0 -3 0zM1396.5 282 a1.5 1.5 0 1 0 3 0 a1.5 1.5 0 1 0 -3 0zM1156.5 234 a1.5 1.5 0 1 0 3 0 a1.5 1.5 0 1 0 -3 0zM1168.5 234 a1.5 1.5 0 1 0 3 0 a1.5 1.5 0 1 0 -3 0zM1204.5 234 a1.5 1.5 0 1 0 3 0 a1.5 1.5 0 1 0 -3 0zM1180.5 234 a1.5 1.5 0 1 0 3 0 a1.5 1.5 0 1 0 -3 0zM928.5 246 a1.5 1.5 0 1 0 3 0 a1.5 1.5 0 1 0 -3 0z" fill="black"></path>
            <path d="M640.5 618 a1.5 1.5 0 1 0 3 0 a1.5 1.5 0 1 0 -3 0zM1372.5 534 a1.5 1.5 0 1 0 3 0 a1.5 1.5 0 1 0 -3 0zM1240.5 558 a1.5 1.5 0 1 0 3 0 a1.5 1.5 0 1 0 -3 0zM796.5 606 a1.5 1.5 0 1 0 3 0 a1.5 1.5 0 1 0 -3 0zM1132.5 570 a1.5 1.5 0 1 0 3 0 a1.5 1.5 0 1 0 -3 0zM1252.5 558 a1.5 1.5 0 1 0 3 0 a1.5 1.5 0 1 0 -3 0zM1168.5 570 a1.5 1.5 0 1 0 3 0 a1.5 1.5 0 1 0 -3 0zM784.5 594 a1.5 1.5 0 1 0 3 0 a1.5 1.5 0 1 0 -3 0zM916.5 582 a1.5 1.5 0 1 0 3 0 a1.5 1.5 0 1 0 -3 0zM1288.5 546 a1.5 1.5 0 1 0 3 0 a1.5 1.5 0 1 0 -3 0zM772.5 630 a1.5 1.5 0 1 0 3 0 a1.5 1.5 0 1 0 -3 0zM628.5 630 a1.5 1.5 0 1 0 3 0 a1.5 1.5 0 1 0 -3 0zM652.5 606 a1.5 1.5 0 1 0 3 0 a1.5 1.5 0 1 0 -3 0zM916.5 594 a1.5 1.5 0 1 0 3 0 a1.5 1.5 0 1 0 -3 0zM820.5 618 a1.5 1.5 0 1 0 3 0 a1.5 1.5 0 1 0 -3 0zM1012.5 594 a1.5 1.5 0 1 0 3 0 a1.5 1.5 0 1 0 -3 0zM664.5 582 a1.5 1.5 0 1 0 3 0 a1.5 1.5 0 1 0 -3 0zM1072.5 570 a1.5 1.5 0 1 0 3 0 a1.5 1.5 0 1 0 -3 0z" fill="black"></path>
            <path d="M808.5 222 a1.5 1.5 0 1 0 3 0 a1.5 1.5 0 1 0 -3 0zM832.5 210 a1.5 1.5 0 1 0 3 0 a1.5 1.5 0 1 0 -3 0zM1324.5 234 a1.5 1.5 0 1 0 3 0 a1.5 1.5 0 1 0 -3 0zM1144.5 210 a1.5 1.5 0 1 0 3 0 a1.5 1.5 0 1 0 -3 0zM1312.5 246 a1.5 1.5 0 1 0 3 0 a1.5 1.5 0 1 0 -3 0zM940.5 210 a1.5 1.5 0 1 0 3 0 a1.5 1.5 0 1 0 -3 0zM1408.5 282 a1.5 1.5 0 1 0 3 0 a1.5 1.5 0 1 0 -3 0zM832.5 234 a1.5 1.5 0 1 0 3 0 a1.5 1.5 0 1 0 -3 0zM892.5 210 a1.5 1.5 0 1 0 3 0 a1.5 1.5 0 1 0 -3 0zM868.5 186 a1.5 1.5 0 1 0 3 0 a1.5 1.5 0 1 0 -3 0zM1024.5 210 a1.5 1.5 0 1 0 3 0 a1.5 1.5 0 1 0 -3 0zM760.5 186 a1.5 1.5 0 1 0 3 0 a1.5 1.5 0 1 0 -3 0zM988.5 222 a1.5 1.5 0 1 0 3 0 a1.5 1.5 0 1 0 -3 0zM1252.5 222 a1.5 1.5 0 1 0 3 0 a1.5 1.5 0 1 0 -3 0z" fill="black"></path>
            <path d="M700.5 654 a1.5 1.5 0 1 0 3 0 a1.5 1.5 0 1 0 -3 0zM1384.5 558 a1.5 1.5 0 1 0 3 0 a1.5 1.5 0 1 0 -3 0zM1396.5 558 a1.5 1.5 0 1 0 3 0 a1.5 1.5 0 1 0 -3 0zM568.5 642 a1.5 1.5 0 1 0 3 0 a1.5 1.5 0 1 0 -3 0zM1036.5 618 a1.5 1.5 0 1 0 3 0 a1.5 1.5 0 1 0 -3 0zM712.5 642 a1.5 1.5 0 1 0 3 0 a1.5 1.5 0 1 0 -3 0z" fill="black"></path>
            <path d="M964.5 186 a1.5 1.5 0 1 0 3 0 a1.5 1.5 0 1 0 -3 0zM1180.5 210 a1.5 1.5 0 1 0 3 0 a1.5 1.5 0 1 0 -3 0zM1036.5 210 a1.5 1.5 0 1 0 3 0 a1.5 1.5 0 1 0 -3 0zM976.5 198 a1.5 1.5 0 1 0 3 0 a1.5 1.5 0 1 0 -3 0zM1120.5 198 a1.5 1.5 0 1 0 3 0 a1.5 1.5 0 1 0 -3 0zM1276.5 210 a1.5 1.5 0 1 0 3 0 a1.5 1.5 0 1 0 -3 0zM1060.5 210 a1.5 1.5 0 1 0 3 0 a1.5 1.5 0 1 0 -3 0zM1132.5 198 a1.5 1.5 0 1 0 3 0 a1.5 1.5 0 1 0 -3 0zM1096.5 198 a1.5 1.5 0 1 0 3 0 a1.5 1.5 0 1 0 -3 0zM1000.5 198 a1.5 1.5 0 1 0 3 0 a1.5 1.5 0 1 0 -3 0zM916.5 174 a1.5 1.5 0 1 0 3 0 a1.5 1.5 0 1 0 -3 0z" fill="black"></path>
            <path d="M808.5 162 a1.5 1.5 0 1 0 3 0 a1.5 1.5 0 1 0 -3 0zM952.5 150 a1.5 1.5 0 1 0 3 0 a1.5 1.5 0 1 0 -3 0zM1060.5 162 a1.5 1.5 0 1 0 3 0 a1.5 1.5 0 1 0 -3 0zM976.5 150 a1.5 1.5 0 1 0 3 0 a1.5 1.5 0 1 0 -3 0zM772.5 174 a1.5 1.5 0 1 0 3 0 a1.5 1.5 0 1 0 -3 0zM844.5 150 a1.5 1.5 0 1 0 3 0 a1.5 1.5 0 1 0 -3 0zM868.5 174 a1.5 1.5 0 1 0 3 0 a1.5 1.5 0 1 0 -3 0zM1360.5 234 a1.5 1.5 0 1 0 3 0 a1.5 1.5 0 1 0 -3 0zM1096.5 162 a1.5 1.5 0 1 0 3 0 a1.5 1.5 0 1 0 -3 0zM988.5 174 a1.5 1.5 0 1 0 3 0 a1.5 1.5 0 1 0 -3 0zM748.5 150 a1.5 1.5 0 1 0 3 0 a1.5 1.5 0 1 0 -3 0zM1384.5 234 a1.5 1.5 0 1 0 3 0 a1.5 1.5 0 1 0 -3 0zM1420.5 234 a1.5 1.5 0 1 0 3 0 a1.5 1.5 0 1 0 -3 0zM748.5 138 a1.5 1.5 0 1 0 3 0 a1.5 1.5 0 1 0 -3 0z" fill="black"></path>
            <path d="M616.5 654 a1.5 1.5 0 1 0 3 0 a1.5 1.5 0 1 0 -3 0zM1228.5 606 a1.5 1.5 0 1 0 3 0 a1.5 1.5 0 1 0 -3 0zM1408.5 558 a1.5 1.5 0 1 0 3 0 a1.5 1.5 0 1 0 -3 0zM652.5 654 a1.5 1.5 0 1 0 3 0 a1.5 1.5 0 1 0 -3 0zM1048.5 618 a1.5 1.5 0 1 0 3 0 a1.5 1.5 0 1 0 -3 0zM1276.5 606 a1.5 1.5 0 1 0 3 0 a1.5 1.5 0 1 0 -3 0zM676.5 654 a1.5 1.5 0 1 0 3 0 a1.5 1.5 0 1 0 -3 0zM772.5 666 a1.5 1.5 0 1 0 3 0 a1.5 1.5 0 1 0 -3 0zM868.5 654 a1.5 1.5 0 1 0 3 0 a1.5 1.5 0 1 0 -3 0zM628.5 666 a1.5 1.5 0 1 0 3 0 a1.5 1.5 0 1 0 -3 0zM784.5 666 a1.5 1.5 0 1 0 3 0 a1.5 1.5 0 1 0 -3 0zM640.5 666 a1.5 1.5 0 1 0 3 0 a1.5 1.5 0 1 0 -3 0z" fill="black"></path>
            <path d="M1300.5 606 a1.5 1.5 0 1 0 3 0 a1.5 1.5 0 1 0 -3 0z" fill="black"></path>
            <path d="M1324.5 198 a1.5 1.5 0 1 0 3 0 a1.5 1.5 0 1 0 -3 0zM1432.5 234 a1.5 1.5 0 1 0 3 0 a1.5 1.5 0 1 0 -3 0z" fill="black"></path>
            <path d="M544.5 666 a1.5 1.5 0 1 0 3 0 a1.5 1.5 0 1 0 -3 0zM1072.5 642 a1.5 1.5 0 1 0 3 0 a1.5 1.5 0 1 0 -3 0zM736.5 690 a1.5 1.5 0 1 0 3 0 a1.5 1.5 0 1 0 -3 0zM952.5 690 a1.5 1.5 0 1 0 3 0 a1.5 1.5 0 1 0 -3 0zM1240.5 630 a1.5 1.5 0 1 0 3 0 a1.5 1.5 0 1 0 -3 0zM676.5 690 a1.5 1.5 0 1 0 3 0 a1.5 1.5 0 1 0 -3 0zM1192.5 630 a1.5 1.5 0 1 0 3 0 a1.5 1.5 0 1 0 -3 0zM604.5 690 a1.5 1.5 0 1 0 3 0 a1.5 1.5 0 1 0 -3 0zM1276.5 618 a1.5 1.5 0 1 0 3 0 a1.5 1.5 0 1 0 -3 0zM808.5 666 a1.5 1.5 0 1 0 3 0 a1.5 1.5 0 1 0 -3 0zM1072.5 630 a1.5 1.5 0 1 0 3 0 a1.5 1.5 0 1 0 -3 0zM580.5 714 a1.5 1.5 0 1 0 3 0 a1.5 1.5 0 1 0 -3 0zM460.5 678 a1.5 1.5 0 1 0 3 0 a1.5 1.5 0 1 0 -3 0zM880.5 654 a1.5 1.5 0 1 0 3 0 a1.5 1.5 0 1 0 -3 0zM544.5 654 a1.5 1.5 0 1 0 3 0 a1.5 1.5 0 1 0 -3 0zM1348.5 594 a1.5 1.5 0 1 0 3 0 a1.5 1.5 0 1 0 -3 0zM1156.5 654 a1.5 1.5 0 1 0 3 0 a1.5 1.5 0 1 0 -3 0zM892.5 666 a1.5 1.5 0 1 0 3 0 a1.5 1.5 0 1 0 -3 0zM1180.5 654 a1.5 1.5 0 1 0 3 0 a1.5 1.5 0 1 0 -3 0zM916.5 666 a1.5 1.5 0 1 0 3 0 a1.5 1.5 0 1 0 -3 0z" fill="black"></path>
            <path d="M1312.5 630 a1.5 1.5 0 1 0 3 0 a1.5 1.5 0 1 0 -3 0zM1336.5 630 a1.5 1.5 0 1 0 3 0 a1.5 1.5 0 1 0 -3 0zM1276.5 654 a1.5 1.5 0 1 0 3 0 a1.5 1.5 0 1 0 -3 0zM1420.5 606 a1.5 1.5 0 1 0 3 0 a1.5 1.5 0 1 0 -3 0z" fill="black"></path>
            <path d="M1132.5 162 a1.5 1.5 0 1 0 3 0 a1.5 1.5 0 1 0 -3 0zM1216.5 174 a1.5 1.5 0 1 0 3 0 a1.5 1.5 0 1 0 -3 0zM1192.5 174 a1.5 1.5 0 1 0 3 0 a1.5 1.5 0 1 0 -3 0zM1096.5 150 a1.5 1.5 0 1 0 3 0 a1.5 1.5 0 1 0 -3 0zM1216.5 150 a1.5 1.5 0 1 0 3 0 a1.5 1.5 0 1 0 -3 0zM1432.5 198 a1.5 1.5 0 1 0 3 0 a1.5 1.5 0 1 0 -3 0zM1276.5 150 a1.5 1.5 0 1 0 3 0 a1.5 1.5 0 1 0 -3 0zM1144.5 174 a1.5 1.5 0 1 0 3 0 a1.5 1.5 0 1 0 -3 0z" fill="black"></path>
        </mask>
    </defs>
</svg>